<mxfile host="app.diagrams.net" modified="2021-09-16T18:49:35.781Z" agent="5.0 (Macintosh; Intel Mac OS X 10_15_7) AppleWebKit/537.36 (KHTML, like Gecko) Chrome/93.0.4577.63 Safari/537.36" etag="FmWMtDiQDqoejKyxaho2" version="15.2.7" type="github" pages="2">
  <diagram id="R2lEEEUBdFMjLlhIrx00" name="Page-1">
    <mxGraphModel dx="1165" dy="878" grid="1" gridSize="10" guides="1" tooltips="1" connect="1" arrows="1" fold="1" page="1" pageScale="1" pageWidth="1169" pageHeight="827" background="#F1FAEE" math="0" shadow="0" extFonts="Permanent Marker^https://fonts.googleapis.com/css?family=Permanent+Marker">
      <root>
        <mxCell id="0" />
        <mxCell id="1" parent="0" />
        <mxCell id="C-vyLk0tnHw3VtMMgP7b-2" value="movie " style="shape=table;startSize=30;container=1;collapsible=1;childLayout=tableLayout;fixedRows=1;rowLines=0;fontStyle=1;align=center;resizeLast=1;fillColor=#A8DADC;strokeColor=#457B9D;fontColor=#1D3557;" parent="1" vertex="1">
          <mxGeometry x="880" y="280" width="250" height="340" as="geometry" />
        </mxCell>
        <mxCell id="C-vyLk0tnHw3VtMMgP7b-3" value="" style="shape=partialRectangle;collapsible=0;dropTarget=0;pointerEvents=0;fillColor=none;points=[[0,0.5],[1,0.5]];portConstraint=eastwest;top=0;left=0;right=0;bottom=1;strokeColor=#457B9D;fontColor=#1D3557;" parent="C-vyLk0tnHw3VtMMgP7b-2" vertex="1">
          <mxGeometry y="30" width="250" height="30" as="geometry" />
        </mxCell>
        <mxCell id="C-vyLk0tnHw3VtMMgP7b-4" value="PK" style="shape=partialRectangle;overflow=hidden;connectable=0;fillColor=none;top=0;left=0;bottom=0;right=0;fontStyle=1;strokeColor=#457B9D;fontColor=#1D3557;" parent="C-vyLk0tnHw3VtMMgP7b-3" vertex="1">
          <mxGeometry width="90" height="30" as="geometry" />
        </mxCell>
        <mxCell id="C-vyLk0tnHw3VtMMgP7b-5" value="Movie Id" style="shape=partialRectangle;overflow=hidden;connectable=0;fillColor=none;top=0;left=0;bottom=0;right=0;align=left;spacingLeft=6;fontStyle=5;strokeColor=#457B9D;fontColor=#1D3557;" parent="C-vyLk0tnHw3VtMMgP7b-3" vertex="1">
          <mxGeometry x="90" width="160" height="30" as="geometry" />
        </mxCell>
        <mxCell id="C-vyLk0tnHw3VtMMgP7b-6" value="" style="shape=partialRectangle;collapsible=0;dropTarget=0;pointerEvents=0;fillColor=none;points=[[0,0.5],[1,0.5]];portConstraint=eastwest;top=0;left=0;right=0;bottom=0;strokeColor=#457B9D;fontColor=#1D3557;" parent="C-vyLk0tnHw3VtMMgP7b-2" vertex="1">
          <mxGeometry y="60" width="250" height="30" as="geometry" />
        </mxCell>
        <mxCell id="C-vyLk0tnHw3VtMMgP7b-7" value="FK1" style="shape=partialRectangle;overflow=hidden;connectable=0;fillColor=none;top=0;left=0;bottom=0;right=0;strokeColor=#457B9D;fontColor=#1D3557;" parent="C-vyLk0tnHw3VtMMgP7b-6" vertex="1">
          <mxGeometry width="90" height="30" as="geometry" />
        </mxCell>
        <mxCell id="C-vyLk0tnHw3VtMMgP7b-8" value="" style="shape=partialRectangle;overflow=hidden;connectable=0;fillColor=none;top=0;left=0;bottom=0;right=0;align=left;spacingLeft=6;strokeColor=#457B9D;fontColor=#1D3557;" parent="C-vyLk0tnHw3VtMMgP7b-6" vertex="1">
          <mxGeometry x="90" width="160" height="30" as="geometry" />
        </mxCell>
        <mxCell id="C-vyLk0tnHw3VtMMgP7b-9" value="" style="shape=partialRectangle;collapsible=0;dropTarget=0;pointerEvents=0;fillColor=none;points=[[0,0.5],[1,0.5]];portConstraint=eastwest;top=0;left=0;right=0;bottom=0;strokeColor=#457B9D;fontColor=#1D3557;" parent="C-vyLk0tnHw3VtMMgP7b-2" vertex="1">
          <mxGeometry y="90" width="250" height="30" as="geometry" />
        </mxCell>
        <mxCell id="C-vyLk0tnHw3VtMMgP7b-10" value="Release date" style="shape=partialRectangle;overflow=hidden;connectable=0;fillColor=none;top=0;left=0;bottom=0;right=0;strokeColor=#457B9D;fontColor=#1D3557;" parent="C-vyLk0tnHw3VtMMgP7b-9" vertex="1">
          <mxGeometry width="90" height="30" as="geometry" />
        </mxCell>
        <mxCell id="C-vyLk0tnHw3VtMMgP7b-11" value="string " style="shape=partialRectangle;overflow=hidden;connectable=0;fillColor=none;top=0;left=0;bottom=0;right=0;align=left;spacingLeft=6;strokeColor=#457B9D;fontColor=#1D3557;" parent="C-vyLk0tnHw3VtMMgP7b-9" vertex="1">
          <mxGeometry x="90" width="160" height="30" as="geometry" />
        </mxCell>
        <mxCell id="KycW4tC0qBG2q9IRIVnm-11" value="" style="shape=partialRectangle;collapsible=0;dropTarget=0;pointerEvents=0;fillColor=none;points=[[0,0.5],[1,0.5]];portConstraint=eastwest;top=0;left=0;right=0;bottom=0;strokeColor=#457B9D;fontColor=#1D3557;" parent="C-vyLk0tnHw3VtMMgP7b-2" vertex="1">
          <mxGeometry y="120" width="250" height="30" as="geometry" />
        </mxCell>
        <mxCell id="KycW4tC0qBG2q9IRIVnm-12" value="Genre" style="shape=partialRectangle;overflow=hidden;connectable=0;fillColor=none;top=0;left=0;bottom=0;right=0;strokeColor=#457B9D;fontColor=#1D3557;" parent="KycW4tC0qBG2q9IRIVnm-11" vertex="1">
          <mxGeometry width="90" height="30" as="geometry" />
        </mxCell>
        <mxCell id="KycW4tC0qBG2q9IRIVnm-13" value="array of genres" style="shape=partialRectangle;overflow=hidden;connectable=0;fillColor=none;top=0;left=0;bottom=0;right=0;align=left;spacingLeft=6;strokeColor=#457B9D;fontColor=#1D3557;" parent="KycW4tC0qBG2q9IRIVnm-11" vertex="1">
          <mxGeometry x="90" width="160" height="30" as="geometry" />
        </mxCell>
        <mxCell id="KycW4tC0qBG2q9IRIVnm-27" value="" style="shape=partialRectangle;collapsible=0;dropTarget=0;pointerEvents=0;fillColor=none;points=[[0,0.5],[1,0.5]];portConstraint=eastwest;top=0;left=0;right=0;bottom=0;strokeColor=#457B9D;fontColor=#1D3557;" parent="C-vyLk0tnHw3VtMMgP7b-2" vertex="1">
          <mxGeometry y="150" width="250" height="30" as="geometry" />
        </mxCell>
        <mxCell id="KycW4tC0qBG2q9IRIVnm-28" value="Rating" style="shape=partialRectangle;overflow=hidden;connectable=0;fillColor=none;top=0;left=0;bottom=0;right=0;strokeColor=#457B9D;fontColor=#1D3557;" parent="KycW4tC0qBG2q9IRIVnm-27" vertex="1">
          <mxGeometry width="90" height="30" as="geometry" />
        </mxCell>
        <mxCell id="KycW4tC0qBG2q9IRIVnm-29" value="number" style="shape=partialRectangle;overflow=hidden;connectable=0;fillColor=none;top=0;left=0;bottom=0;right=0;align=left;spacingLeft=6;strokeColor=#457B9D;fontColor=#1D3557;" parent="KycW4tC0qBG2q9IRIVnm-27" vertex="1">
          <mxGeometry x="90" width="160" height="30" as="geometry" />
        </mxCell>
        <mxCell id="KycW4tC0qBG2q9IRIVnm-30" value="" style="shape=partialRectangle;collapsible=0;dropTarget=0;pointerEvents=0;fillColor=none;points=[[0,0.5],[1,0.5]];portConstraint=eastwest;top=0;left=0;right=0;bottom=0;strokeColor=#457B9D;fontColor=#1D3557;" parent="C-vyLk0tnHw3VtMMgP7b-2" vertex="1">
          <mxGeometry y="180" width="250" height="30" as="geometry" />
        </mxCell>
        <mxCell id="KycW4tC0qBG2q9IRIVnm-31" value="title" style="shape=partialRectangle;overflow=hidden;connectable=0;fillColor=none;top=0;left=0;bottom=0;right=0;strokeColor=#457B9D;fontColor=#1D3557;" parent="KycW4tC0qBG2q9IRIVnm-30" vertex="1">
          <mxGeometry width="90" height="30" as="geometry" />
        </mxCell>
        <mxCell id="KycW4tC0qBG2q9IRIVnm-32" value="string" style="shape=partialRectangle;overflow=hidden;connectable=0;fillColor=none;top=0;left=0;bottom=0;right=0;align=left;spacingLeft=6;strokeColor=#457B9D;fontColor=#1D3557;" parent="KycW4tC0qBG2q9IRIVnm-30" vertex="1">
          <mxGeometry x="90" width="160" height="30" as="geometry" />
        </mxCell>
        <mxCell id="KycW4tC0qBG2q9IRIVnm-33" value="" style="shape=partialRectangle;collapsible=0;dropTarget=0;pointerEvents=0;fillColor=none;points=[[0,0.5],[1,0.5]];portConstraint=eastwest;top=0;left=0;right=0;bottom=0;strokeColor=#457B9D;fontColor=#1D3557;" parent="C-vyLk0tnHw3VtMMgP7b-2" vertex="1">
          <mxGeometry y="210" width="250" height="30" as="geometry" />
        </mxCell>
        <mxCell id="KycW4tC0qBG2q9IRIVnm-34" value="description" style="shape=partialRectangle;overflow=hidden;connectable=0;fillColor=none;top=0;left=0;bottom=0;right=0;strokeColor=#457B9D;fontColor=#1D3557;" parent="KycW4tC0qBG2q9IRIVnm-33" vertex="1">
          <mxGeometry width="90" height="30" as="geometry" />
        </mxCell>
        <mxCell id="KycW4tC0qBG2q9IRIVnm-35" value="string" style="shape=partialRectangle;overflow=hidden;connectable=0;fillColor=none;top=0;left=0;bottom=0;right=0;align=left;spacingLeft=6;strokeColor=#457B9D;fontColor=#1D3557;" parent="KycW4tC0qBG2q9IRIVnm-33" vertex="1">
          <mxGeometry x="90" width="160" height="30" as="geometry" />
        </mxCell>
        <mxCell id="KycW4tC0qBG2q9IRIVnm-36" value="" style="shape=partialRectangle;collapsible=0;dropTarget=0;pointerEvents=0;fillColor=none;points=[[0,0.5],[1,0.5]];portConstraint=eastwest;top=0;left=0;right=0;bottom=0;strokeColor=#457B9D;fontColor=#1D3557;" parent="C-vyLk0tnHw3VtMMgP7b-2" vertex="1">
          <mxGeometry y="240" width="250" height="30" as="geometry" />
        </mxCell>
        <mxCell id="KycW4tC0qBG2q9IRIVnm-37" value="overview" style="shape=partialRectangle;overflow=hidden;connectable=0;fillColor=none;top=0;left=0;bottom=0;right=0;strokeColor=#457B9D;fontColor=#1D3557;" parent="KycW4tC0qBG2q9IRIVnm-36" vertex="1">
          <mxGeometry width="90" height="30" as="geometry" />
        </mxCell>
        <mxCell id="KycW4tC0qBG2q9IRIVnm-38" value="string" style="shape=partialRectangle;overflow=hidden;connectable=0;fillColor=none;top=0;left=0;bottom=0;right=0;align=left;spacingLeft=6;strokeColor=#457B9D;fontColor=#1D3557;" parent="KycW4tC0qBG2q9IRIVnm-36" vertex="1">
          <mxGeometry x="90" width="160" height="30" as="geometry" />
        </mxCell>
        <mxCell id="KycW4tC0qBG2q9IRIVnm-39" value="" style="shape=partialRectangle;collapsible=0;dropTarget=0;pointerEvents=0;fillColor=none;points=[[0,0.5],[1,0.5]];portConstraint=eastwest;top=0;left=0;right=0;bottom=0;strokeColor=#457B9D;fontColor=#1D3557;" parent="C-vyLk0tnHw3VtMMgP7b-2" vertex="1">
          <mxGeometry y="270" width="250" height="30" as="geometry" />
        </mxCell>
        <mxCell id="KycW4tC0qBG2q9IRIVnm-40" value="poster" style="shape=partialRectangle;overflow=hidden;connectable=0;fillColor=none;top=0;left=0;bottom=0;right=0;strokeColor=#457B9D;fontColor=#1D3557;" parent="KycW4tC0qBG2q9IRIVnm-39" vertex="1">
          <mxGeometry width="90" height="30" as="geometry" />
        </mxCell>
        <mxCell id="KycW4tC0qBG2q9IRIVnm-41" value="string" style="shape=partialRectangle;overflow=hidden;connectable=0;fillColor=none;top=0;left=0;bottom=0;right=0;align=left;spacingLeft=6;strokeColor=#457B9D;fontColor=#1D3557;" parent="KycW4tC0qBG2q9IRIVnm-39" vertex="1">
          <mxGeometry x="90" width="160" height="30" as="geometry" />
        </mxCell>
        <mxCell id="KycW4tC0qBG2q9IRIVnm-101" value="" style="shape=partialRectangle;collapsible=0;dropTarget=0;pointerEvents=0;fillColor=none;points=[[0,0.5],[1,0.5]];portConstraint=eastwest;top=0;left=0;right=0;bottom=0;strokeColor=#457B9D;fontColor=#1D3557;" parent="C-vyLk0tnHw3VtMMgP7b-2" vertex="1">
          <mxGeometry y="300" width="250" height="30" as="geometry" />
        </mxCell>
        <mxCell id="KycW4tC0qBG2q9IRIVnm-102" value="duration" style="shape=partialRectangle;overflow=hidden;connectable=0;fillColor=none;top=0;left=0;bottom=0;right=0;strokeColor=#457B9D;fontColor=#1D3557;" parent="KycW4tC0qBG2q9IRIVnm-101" vertex="1">
          <mxGeometry width="90" height="30" as="geometry" />
        </mxCell>
        <mxCell id="KycW4tC0qBG2q9IRIVnm-103" value="string" style="shape=partialRectangle;overflow=hidden;connectable=0;fillColor=none;top=0;left=0;bottom=0;right=0;align=left;spacingLeft=6;strokeColor=#457B9D;fontColor=#1D3557;" parent="KycW4tC0qBG2q9IRIVnm-101" vertex="1">
          <mxGeometry x="90" width="160" height="30" as="geometry" />
        </mxCell>
        <mxCell id="C-vyLk0tnHw3VtMMgP7b-13" value="transaction" style="shape=table;startSize=30;container=1;collapsible=1;childLayout=tableLayout;fixedRows=1;rowLines=0;fontStyle=1;align=center;resizeLast=1;fillColor=#A8DADC;strokeColor=#457B9D;fontColor=#1D3557;" parent="1" vertex="1">
          <mxGeometry x="510" y="304" width="250" height="220" as="geometry" />
        </mxCell>
        <mxCell id="C-vyLk0tnHw3VtMMgP7b-14" value="" style="shape=partialRectangle;collapsible=0;dropTarget=0;pointerEvents=0;fillColor=none;points=[[0,0.5],[1,0.5]];portConstraint=eastwest;top=0;left=0;right=0;bottom=1;strokeColor=#457B9D;fontColor=#1D3557;" parent="C-vyLk0tnHw3VtMMgP7b-13" vertex="1">
          <mxGeometry y="30" width="250" height="30" as="geometry" />
        </mxCell>
        <mxCell id="C-vyLk0tnHw3VtMMgP7b-15" value="PK" style="shape=partialRectangle;overflow=hidden;connectable=0;fillColor=none;top=0;left=0;bottom=0;right=0;fontStyle=1;strokeColor=#457B9D;fontColor=#1D3557;" parent="C-vyLk0tnHw3VtMMgP7b-14" vertex="1">
          <mxGeometry width="80" height="30" as="geometry" />
        </mxCell>
        <mxCell id="C-vyLk0tnHw3VtMMgP7b-16" value="id" style="shape=partialRectangle;overflow=hidden;connectable=0;fillColor=none;top=0;left=0;bottom=0;right=0;align=left;spacingLeft=6;fontStyle=5;strokeColor=#457B9D;fontColor=#1D3557;" parent="C-vyLk0tnHw3VtMMgP7b-14" vertex="1">
          <mxGeometry x="80" width="170" height="30" as="geometry" />
        </mxCell>
        <mxCell id="C-vyLk0tnHw3VtMMgP7b-17" value="" style="shape=partialRectangle;collapsible=0;dropTarget=0;pointerEvents=0;fillColor=none;points=[[0,0.5],[1,0.5]];portConstraint=eastwest;top=0;left=0;right=0;bottom=0;strokeColor=#457B9D;fontColor=#1D3557;" parent="C-vyLk0tnHw3VtMMgP7b-13" vertex="1">
          <mxGeometry y="60" width="250" height="30" as="geometry" />
        </mxCell>
        <mxCell id="C-vyLk0tnHw3VtMMgP7b-18" value="FK1" style="shape=partialRectangle;overflow=hidden;connectable=0;fillColor=none;top=0;left=0;bottom=0;right=0;strokeColor=#457B9D;fontColor=#1D3557;" parent="C-vyLk0tnHw3VtMMgP7b-17" vertex="1">
          <mxGeometry width="80" height="30" as="geometry" />
        </mxCell>
        <mxCell id="C-vyLk0tnHw3VtMMgP7b-19" value="cinema id " style="shape=partialRectangle;overflow=hidden;connectable=0;fillColor=none;top=0;left=0;bottom=0;right=0;align=left;spacingLeft=6;strokeColor=#457B9D;fontColor=#1D3557;" parent="C-vyLk0tnHw3VtMMgP7b-17" vertex="1">
          <mxGeometry x="80" width="170" height="30" as="geometry" />
        </mxCell>
        <mxCell id="C-vyLk0tnHw3VtMMgP7b-20" value="" style="shape=partialRectangle;collapsible=0;dropTarget=0;pointerEvents=0;fillColor=none;points=[[0,0.5],[1,0.5]];portConstraint=eastwest;top=0;left=0;right=0;bottom=0;strokeColor=#457B9D;fontColor=#1D3557;" parent="C-vyLk0tnHw3VtMMgP7b-13" vertex="1">
          <mxGeometry y="90" width="250" height="30" as="geometry" />
        </mxCell>
        <mxCell id="C-vyLk0tnHw3VtMMgP7b-21" value="FK2" style="shape=partialRectangle;overflow=hidden;connectable=0;fillColor=none;top=0;left=0;bottom=0;right=0;strokeColor=#457B9D;fontColor=#1D3557;" parent="C-vyLk0tnHw3VtMMgP7b-20" vertex="1">
          <mxGeometry width="80" height="30" as="geometry" />
        </mxCell>
        <mxCell id="C-vyLk0tnHw3VtMMgP7b-22" value="user id " style="shape=partialRectangle;overflow=hidden;connectable=0;fillColor=none;top=0;left=0;bottom=0;right=0;align=left;spacingLeft=6;strokeColor=#457B9D;fontColor=#1D3557;" parent="C-vyLk0tnHw3VtMMgP7b-20" vertex="1">
          <mxGeometry x="80" width="170" height="30" as="geometry" />
        </mxCell>
        <mxCell id="KycW4tC0qBG2q9IRIVnm-60" value="" style="shape=partialRectangle;collapsible=0;dropTarget=0;pointerEvents=0;fillColor=none;points=[[0,0.5],[1,0.5]];portConstraint=eastwest;top=0;left=0;right=0;bottom=0;strokeColor=#457B9D;fontColor=#1D3557;" parent="C-vyLk0tnHw3VtMMgP7b-13" vertex="1">
          <mxGeometry y="120" width="250" height="30" as="geometry" />
        </mxCell>
        <mxCell id="KycW4tC0qBG2q9IRIVnm-61" value="date" style="shape=partialRectangle;overflow=hidden;connectable=0;fillColor=none;top=0;left=0;bottom=0;right=0;strokeColor=#457B9D;fontColor=#1D3557;" parent="KycW4tC0qBG2q9IRIVnm-60" vertex="1">
          <mxGeometry width="80" height="30" as="geometry" />
        </mxCell>
        <mxCell id="KycW4tC0qBG2q9IRIVnm-62" value="string" style="shape=partialRectangle;overflow=hidden;connectable=0;fillColor=none;top=0;left=0;bottom=0;right=0;align=left;spacingLeft=6;strokeColor=#457B9D;fontColor=#1D3557;" parent="KycW4tC0qBG2q9IRIVnm-60" vertex="1">
          <mxGeometry x="80" width="170" height="30" as="geometry" />
        </mxCell>
        <mxCell id="KycW4tC0qBG2q9IRIVnm-95" value="" style="shape=partialRectangle;collapsible=0;dropTarget=0;pointerEvents=0;fillColor=none;points=[[0,0.5],[1,0.5]];portConstraint=eastwest;top=0;left=0;right=0;bottom=0;strokeColor=#457B9D;fontColor=#1D3557;" parent="C-vyLk0tnHw3VtMMgP7b-13" vertex="1">
          <mxGeometry y="150" width="250" height="30" as="geometry" />
        </mxCell>
        <mxCell id="KycW4tC0qBG2q9IRIVnm-96" value="agenda" style="shape=partialRectangle;overflow=hidden;connectable=0;fillColor=none;top=0;left=0;bottom=0;right=0;strokeColor=#457B9D;fontColor=#1D3557;" parent="KycW4tC0qBG2q9IRIVnm-95" vertex="1">
          <mxGeometry width="80" height="30" as="geometry" />
        </mxCell>
        <mxCell id="KycW4tC0qBG2q9IRIVnm-97" value="array of agendas" style="shape=partialRectangle;overflow=hidden;connectable=0;fillColor=none;top=0;left=0;bottom=0;right=0;align=left;spacingLeft=6;strokeColor=#457B9D;fontColor=#1D3557;" parent="KycW4tC0qBG2q9IRIVnm-95" vertex="1">
          <mxGeometry x="80" width="170" height="30" as="geometry" />
        </mxCell>
        <mxCell id="KycW4tC0qBG2q9IRIVnm-98" value="" style="shape=partialRectangle;collapsible=0;dropTarget=0;pointerEvents=0;fillColor=none;points=[[0,0.5],[1,0.5]];portConstraint=eastwest;top=0;left=0;right=0;bottom=0;strokeColor=#457B9D;fontColor=#1D3557;" parent="C-vyLk0tnHw3VtMMgP7b-13" vertex="1">
          <mxGeometry y="180" width="250" height="30" as="geometry" />
        </mxCell>
        <mxCell id="KycW4tC0qBG2q9IRIVnm-99" value="total" style="shape=partialRectangle;overflow=hidden;connectable=0;fillColor=none;top=0;left=0;bottom=0;right=0;strokeColor=#457B9D;fontColor=#1D3557;" parent="KycW4tC0qBG2q9IRIVnm-98" vertex="1">
          <mxGeometry width="80" height="30" as="geometry" />
        </mxCell>
        <mxCell id="KycW4tC0qBG2q9IRIVnm-100" value="number" style="shape=partialRectangle;overflow=hidden;connectable=0;fillColor=none;top=0;left=0;bottom=0;right=0;align=left;spacingLeft=6;strokeColor=#457B9D;fontColor=#1D3557;" parent="KycW4tC0qBG2q9IRIVnm-98" vertex="1">
          <mxGeometry x="80" width="170" height="30" as="geometry" />
        </mxCell>
        <mxCell id="C-vyLk0tnHw3VtMMgP7b-23" value="User" style="shape=table;startSize=30;container=1;collapsible=1;childLayout=tableLayout;fixedRows=1;rowLines=0;fontStyle=1;align=center;resizeLast=1;fillColor=#A8DADC;strokeColor=#457B9D;fontColor=#1D3557;" parent="1" vertex="1">
          <mxGeometry x="80" y="50" width="250" height="220" as="geometry" />
        </mxCell>
        <mxCell id="C-vyLk0tnHw3VtMMgP7b-24" value="" style="shape=partialRectangle;collapsible=0;dropTarget=0;pointerEvents=0;fillColor=none;points=[[0,0.5],[1,0.5]];portConstraint=eastwest;top=0;left=0;right=0;bottom=1;strokeColor=#457B9D;fontColor=#1D3557;" parent="C-vyLk0tnHw3VtMMgP7b-23" vertex="1">
          <mxGeometry y="30" width="250" height="30" as="geometry" />
        </mxCell>
        <mxCell id="C-vyLk0tnHw3VtMMgP7b-25" value="PK" style="shape=partialRectangle;overflow=hidden;connectable=0;fillColor=none;top=0;left=0;bottom=0;right=0;fontStyle=1;strokeColor=#457B9D;fontColor=#1D3557;" parent="C-vyLk0tnHw3VtMMgP7b-24" vertex="1">
          <mxGeometry width="70" height="30" as="geometry" />
        </mxCell>
        <mxCell id="C-vyLk0tnHw3VtMMgP7b-26" value="id" style="shape=partialRectangle;overflow=hidden;connectable=0;fillColor=none;top=0;left=0;bottom=0;right=0;align=left;spacingLeft=6;fontStyle=5;strokeColor=#457B9D;fontColor=#1D3557;" parent="C-vyLk0tnHw3VtMMgP7b-24" vertex="1">
          <mxGeometry x="70" width="180" height="30" as="geometry" />
        </mxCell>
        <mxCell id="C-vyLk0tnHw3VtMMgP7b-27" value="" style="shape=partialRectangle;collapsible=0;dropTarget=0;pointerEvents=0;fillColor=none;points=[[0,0.5],[1,0.5]];portConstraint=eastwest;top=0;left=0;right=0;bottom=0;strokeColor=#457B9D;fontColor=#1D3557;" parent="C-vyLk0tnHw3VtMMgP7b-23" vertex="1">
          <mxGeometry y="60" width="250" height="30" as="geometry" />
        </mxCell>
        <mxCell id="C-vyLk0tnHw3VtMMgP7b-28" value="name" style="shape=partialRectangle;overflow=hidden;connectable=0;fillColor=none;top=0;left=0;bottom=0;right=0;strokeColor=#457B9D;fontColor=#1D3557;" parent="C-vyLk0tnHw3VtMMgP7b-27" vertex="1">
          <mxGeometry width="70" height="30" as="geometry" />
        </mxCell>
        <mxCell id="C-vyLk0tnHw3VtMMgP7b-29" value="customer_name char(50) NOT NULL" style="shape=partialRectangle;overflow=hidden;connectable=0;fillColor=none;top=0;left=0;bottom=0;right=0;align=left;spacingLeft=6;strokeColor=#457B9D;fontColor=#1D3557;" parent="C-vyLk0tnHw3VtMMgP7b-27" vertex="1">
          <mxGeometry x="70" width="180" height="30" as="geometry" />
        </mxCell>
        <mxCell id="KycW4tC0qBG2q9IRIVnm-5" value="" style="shape=partialRectangle;collapsible=0;dropTarget=0;pointerEvents=0;fillColor=none;points=[[0,0.5],[1,0.5]];portConstraint=eastwest;top=0;left=0;right=0;bottom=0;strokeColor=#457B9D;fontColor=#1D3557;" parent="C-vyLk0tnHw3VtMMgP7b-23" vertex="1">
          <mxGeometry y="90" width="250" height="30" as="geometry" />
        </mxCell>
        <mxCell id="KycW4tC0qBG2q9IRIVnm-6" value="email" style="shape=partialRectangle;overflow=hidden;connectable=0;fillColor=none;top=0;left=0;bottom=0;right=0;strokeColor=#457B9D;fontColor=#1D3557;" parent="KycW4tC0qBG2q9IRIVnm-5" vertex="1">
          <mxGeometry width="70" height="30" as="geometry" />
        </mxCell>
        <mxCell id="KycW4tC0qBG2q9IRIVnm-7" value="string unique" style="shape=partialRectangle;overflow=hidden;connectable=0;fillColor=none;top=0;left=0;bottom=0;right=0;align=left;spacingLeft=6;strokeColor=#457B9D;fontColor=#1D3557;" parent="KycW4tC0qBG2q9IRIVnm-5" vertex="1">
          <mxGeometry x="70" width="180" height="30" as="geometry" />
        </mxCell>
        <mxCell id="KycW4tC0qBG2q9IRIVnm-8" value="" style="shape=partialRectangle;collapsible=0;dropTarget=0;pointerEvents=0;fillColor=none;points=[[0,0.5],[1,0.5]];portConstraint=eastwest;top=0;left=0;right=0;bottom=0;strokeColor=#457B9D;fontColor=#1D3557;" parent="C-vyLk0tnHw3VtMMgP7b-23" vertex="1">
          <mxGeometry y="120" width="250" height="30" as="geometry" />
        </mxCell>
        <mxCell id="KycW4tC0qBG2q9IRIVnm-9" value="guest " style="shape=partialRectangle;overflow=hidden;connectable=0;fillColor=none;top=0;left=0;bottom=0;right=0;strokeColor=#457B9D;fontColor=#1D3557;" parent="KycW4tC0qBG2q9IRIVnm-8" vertex="1">
          <mxGeometry width="70" height="30" as="geometry" />
        </mxCell>
        <mxCell id="KycW4tC0qBG2q9IRIVnm-10" value="boolean" style="shape=partialRectangle;overflow=hidden;connectable=0;fillColor=none;top=0;left=0;bottom=0;right=0;align=left;spacingLeft=6;strokeColor=#457B9D;fontColor=#1D3557;" parent="KycW4tC0qBG2q9IRIVnm-8" vertex="1">
          <mxGeometry x="70" width="180" height="30" as="geometry" />
        </mxCell>
        <mxCell id="KycW4tC0qBG2q9IRIVnm-54" value="" style="shape=partialRectangle;collapsible=0;dropTarget=0;pointerEvents=0;fillColor=none;points=[[0,0.5],[1,0.5]];portConstraint=eastwest;top=0;left=0;right=0;bottom=0;strokeColor=#457B9D;fontColor=#1D3557;" parent="C-vyLk0tnHw3VtMMgP7b-23" vertex="1">
          <mxGeometry y="150" width="250" height="30" as="geometry" />
        </mxCell>
        <mxCell id="KycW4tC0qBG2q9IRIVnm-55" value="admin" style="shape=partialRectangle;overflow=hidden;connectable=0;fillColor=none;top=0;left=0;bottom=0;right=0;strokeColor=#457B9D;fontColor=#1D3557;" parent="KycW4tC0qBG2q9IRIVnm-54" vertex="1">
          <mxGeometry width="70" height="30" as="geometry" />
        </mxCell>
        <mxCell id="KycW4tC0qBG2q9IRIVnm-56" value="boolean" style="shape=partialRectangle;overflow=hidden;connectable=0;fillColor=none;top=0;left=0;bottom=0;right=0;align=left;spacingLeft=6;strokeColor=#457B9D;fontColor=#1D3557;" parent="KycW4tC0qBG2q9IRIVnm-54" vertex="1">
          <mxGeometry x="70" width="180" height="30" as="geometry" />
        </mxCell>
        <mxCell id="KycW4tC0qBG2q9IRIVnm-57" value="" style="shape=partialRectangle;collapsible=0;dropTarget=0;pointerEvents=0;fillColor=none;points=[[0,0.5],[1,0.5]];portConstraint=eastwest;top=0;left=0;right=0;bottom=0;strokeColor=#457B9D;fontColor=#1D3557;" parent="C-vyLk0tnHw3VtMMgP7b-23" vertex="1">
          <mxGeometry y="180" width="250" height="30" as="geometry" />
        </mxCell>
        <mxCell id="KycW4tC0qBG2q9IRIVnm-58" value="password" style="shape=partialRectangle;overflow=hidden;connectable=0;fillColor=none;top=0;left=0;bottom=0;right=0;strokeColor=#457B9D;fontColor=#1D3557;" parent="KycW4tC0qBG2q9IRIVnm-57" vertex="1">
          <mxGeometry width="70" height="30" as="geometry" />
        </mxCell>
        <mxCell id="KycW4tC0qBG2q9IRIVnm-59" value="string" style="shape=partialRectangle;overflow=hidden;connectable=0;fillColor=none;top=0;left=0;bottom=0;right=0;align=left;spacingLeft=6;strokeColor=#457B9D;fontColor=#1D3557;" parent="KycW4tC0qBG2q9IRIVnm-57" vertex="1">
          <mxGeometry x="70" width="180" height="30" as="geometry" />
        </mxCell>
        <mxCell id="KycW4tC0qBG2q9IRIVnm-14" value="Event" style="shape=table;startSize=30;container=1;collapsible=1;childLayout=tableLayout;fixedRows=1;rowLines=0;fontStyle=1;align=center;resizeLast=1;fillColor=#A8DADC;strokeColor=#457B9D;fontColor=#1D3557;" parent="1" vertex="1">
          <mxGeometry x="70" y="630" width="250" height="340" as="geometry" />
        </mxCell>
        <mxCell id="KycW4tC0qBG2q9IRIVnm-15" value="" style="shape=partialRectangle;collapsible=0;dropTarget=0;pointerEvents=0;fillColor=none;points=[[0,0.5],[1,0.5]];portConstraint=eastwest;top=0;left=0;right=0;bottom=1;strokeColor=#457B9D;fontColor=#1D3557;" parent="KycW4tC0qBG2q9IRIVnm-14" vertex="1">
          <mxGeometry y="30" width="250" height="30" as="geometry" />
        </mxCell>
        <mxCell id="KycW4tC0qBG2q9IRIVnm-16" value="PK" style="shape=partialRectangle;overflow=hidden;connectable=0;fillColor=none;top=0;left=0;bottom=0;right=0;fontStyle=1;strokeColor=#457B9D;fontColor=#1D3557;" parent="KycW4tC0qBG2q9IRIVnm-15" vertex="1">
          <mxGeometry width="70" height="30" as="geometry" />
        </mxCell>
        <mxCell id="KycW4tC0qBG2q9IRIVnm-17" value="id" style="shape=partialRectangle;overflow=hidden;connectable=0;fillColor=none;top=0;left=0;bottom=0;right=0;align=left;spacingLeft=6;fontStyle=5;strokeColor=#457B9D;fontColor=#1D3557;" parent="KycW4tC0qBG2q9IRIVnm-15" vertex="1">
          <mxGeometry x="70" width="180" height="30" as="geometry" />
        </mxCell>
        <mxCell id="KycW4tC0qBG2q9IRIVnm-18" value="" style="shape=partialRectangle;collapsible=0;dropTarget=0;pointerEvents=0;fillColor=none;points=[[0,0.5],[1,0.5]];portConstraint=eastwest;top=0;left=0;right=0;bottom=0;strokeColor=#457B9D;fontColor=#1D3557;" parent="KycW4tC0qBG2q9IRIVnm-14" vertex="1">
          <mxGeometry y="60" width="250" height="30" as="geometry" />
        </mxCell>
        <mxCell id="KycW4tC0qBG2q9IRIVnm-19" value="date" style="shape=partialRectangle;overflow=hidden;connectable=0;fillColor=none;top=0;left=0;bottom=0;right=0;strokeColor=#457B9D;fontColor=#1D3557;" parent="KycW4tC0qBG2q9IRIVnm-18" vertex="1">
          <mxGeometry width="70" height="30" as="geometry" />
        </mxCell>
        <mxCell id="KycW4tC0qBG2q9IRIVnm-20" value="string" style="shape=partialRectangle;overflow=hidden;connectable=0;fillColor=none;top=0;left=0;bottom=0;right=0;align=left;spacingLeft=6;strokeColor=#457B9D;fontColor=#1D3557;" parent="KycW4tC0qBG2q9IRIVnm-18" vertex="1">
          <mxGeometry x="70" width="180" height="30" as="geometry" />
        </mxCell>
        <mxCell id="KycW4tC0qBG2q9IRIVnm-21" value="" style="shape=partialRectangle;collapsible=0;dropTarget=0;pointerEvents=0;fillColor=none;points=[[0,0.5],[1,0.5]];portConstraint=eastwest;top=0;left=0;right=0;bottom=0;strokeColor=#457B9D;fontColor=#1D3557;" parent="KycW4tC0qBG2q9IRIVnm-14" vertex="1">
          <mxGeometry y="90" width="250" height="30" as="geometry" />
        </mxCell>
        <mxCell id="KycW4tC0qBG2q9IRIVnm-22" value="movies" style="shape=partialRectangle;overflow=hidden;connectable=0;fillColor=none;top=0;left=0;bottom=0;right=0;strokeColor=#457B9D;fontColor=#1D3557;" parent="KycW4tC0qBG2q9IRIVnm-21" vertex="1">
          <mxGeometry width="70" height="30" as="geometry" />
        </mxCell>
        <mxCell id="KycW4tC0qBG2q9IRIVnm-23" value="array of movies" style="shape=partialRectangle;overflow=hidden;connectable=0;fillColor=none;top=0;left=0;bottom=0;right=0;align=left;spacingLeft=6;strokeColor=#457B9D;fontColor=#1D3557;" parent="KycW4tC0qBG2q9IRIVnm-21" vertex="1">
          <mxGeometry x="70" width="180" height="30" as="geometry" />
        </mxCell>
        <mxCell id="KycW4tC0qBG2q9IRIVnm-24" value="" style="shape=partialRectangle;collapsible=0;dropTarget=0;pointerEvents=0;fillColor=none;points=[[0,0.5],[1,0.5]];portConstraint=eastwest;top=0;left=0;right=0;bottom=0;strokeColor=#457B9D;fontColor=#1D3557;" parent="KycW4tC0qBG2q9IRIVnm-14" vertex="1">
          <mxGeometry y="120" width="250" height="30" as="geometry" />
        </mxCell>
        <mxCell id="KycW4tC0qBG2q9IRIVnm-25" value="2D price" style="shape=partialRectangle;overflow=hidden;connectable=0;fillColor=none;top=0;left=0;bottom=0;right=0;strokeColor=#457B9D;fontColor=#1D3557;" parent="KycW4tC0qBG2q9IRIVnm-24" vertex="1">
          <mxGeometry width="70" height="30" as="geometry" />
        </mxCell>
        <mxCell id="KycW4tC0qBG2q9IRIVnm-26" value="8" style="shape=partialRectangle;overflow=hidden;connectable=0;fillColor=none;top=0;left=0;bottom=0;right=0;align=left;spacingLeft=6;strokeColor=#457B9D;fontColor=#1D3557;" parent="KycW4tC0qBG2q9IRIVnm-24" vertex="1">
          <mxGeometry x="70" width="180" height="30" as="geometry" />
        </mxCell>
        <mxCell id="KycW4tC0qBG2q9IRIVnm-42" value="" style="shape=partialRectangle;collapsible=0;dropTarget=0;pointerEvents=0;fillColor=none;points=[[0,0.5],[1,0.5]];portConstraint=eastwest;top=0;left=0;right=0;bottom=0;strokeColor=#457B9D;fontColor=#1D3557;" parent="KycW4tC0qBG2q9IRIVnm-14" vertex="1">
          <mxGeometry y="150" width="250" height="30" as="geometry" />
        </mxCell>
        <mxCell id="KycW4tC0qBG2q9IRIVnm-43" value="3D price" style="shape=partialRectangle;overflow=hidden;connectable=0;fillColor=none;top=0;left=0;bottom=0;right=0;strokeColor=#457B9D;fontColor=#1D3557;" parent="KycW4tC0qBG2q9IRIVnm-42" vertex="1">
          <mxGeometry width="70" height="30" as="geometry" />
        </mxCell>
        <mxCell id="KycW4tC0qBG2q9IRIVnm-44" value="10" style="shape=partialRectangle;overflow=hidden;connectable=0;fillColor=none;top=0;left=0;bottom=0;right=0;align=left;spacingLeft=6;strokeColor=#457B9D;fontColor=#1D3557;" parent="KycW4tC0qBG2q9IRIVnm-42" vertex="1">
          <mxGeometry x="70" width="180" height="30" as="geometry" />
        </mxCell>
        <mxCell id="KycW4tC0qBG2q9IRIVnm-45" value="" style="shape=partialRectangle;collapsible=0;dropTarget=0;pointerEvents=0;fillColor=none;points=[[0,0.5],[1,0.5]];portConstraint=eastwest;top=0;left=0;right=0;bottom=0;strokeColor=#457B9D;fontColor=#1D3557;" parent="KycW4tC0qBG2q9IRIVnm-14" vertex="1">
          <mxGeometry y="180" width="250" height="30" as="geometry" />
        </mxCell>
        <mxCell id="KycW4tC0qBG2q9IRIVnm-46" value="4D price" style="shape=partialRectangle;overflow=hidden;connectable=0;fillColor=none;top=0;left=0;bottom=0;right=0;strokeColor=#457B9D;fontColor=#1D3557;" parent="KycW4tC0qBG2q9IRIVnm-45" vertex="1">
          <mxGeometry width="70" height="30" as="geometry" />
        </mxCell>
        <mxCell id="KycW4tC0qBG2q9IRIVnm-47" value="13" style="shape=partialRectangle;overflow=hidden;connectable=0;fillColor=none;top=0;left=0;bottom=0;right=0;align=left;spacingLeft=6;strokeColor=#457B9D;fontColor=#1D3557;" parent="KycW4tC0qBG2q9IRIVnm-45" vertex="1">
          <mxGeometry x="70" width="180" height="30" as="geometry" />
        </mxCell>
        <mxCell id="KycW4tC0qBG2q9IRIVnm-48" value="" style="shape=partialRectangle;collapsible=0;dropTarget=0;pointerEvents=0;fillColor=none;points=[[0,0.5],[1,0.5]];portConstraint=eastwest;top=0;left=0;right=0;bottom=0;strokeColor=#457B9D;fontColor=#1D3557;" parent="KycW4tC0qBG2q9IRIVnm-14" vertex="1">
          <mxGeometry y="210" width="250" height="30" as="geometry" />
        </mxCell>
        <mxCell id="KycW4tC0qBG2q9IRIVnm-49" value="discount" style="shape=partialRectangle;overflow=hidden;connectable=0;fillColor=none;top=0;left=0;bottom=0;right=0;strokeColor=#457B9D;fontColor=#1D3557;" parent="KycW4tC0qBG2q9IRIVnm-48" vertex="1">
          <mxGeometry width="70" height="30" as="geometry" />
        </mxCell>
        <mxCell id="KycW4tC0qBG2q9IRIVnm-50" value="10%" style="shape=partialRectangle;overflow=hidden;connectable=0;fillColor=none;top=0;left=0;bottom=0;right=0;align=left;spacingLeft=6;strokeColor=#457B9D;fontColor=#1D3557;" parent="KycW4tC0qBG2q9IRIVnm-48" vertex="1">
          <mxGeometry x="70" width="180" height="30" as="geometry" />
        </mxCell>
        <mxCell id="KycW4tC0qBG2q9IRIVnm-51" value="" style="shape=partialRectangle;collapsible=0;dropTarget=0;pointerEvents=0;fillColor=none;points=[[0,0.5],[1,0.5]];portConstraint=eastwest;top=0;left=0;right=0;bottom=0;strokeColor=#457B9D;fontColor=#1D3557;" parent="KycW4tC0qBG2q9IRIVnm-14" vertex="1">
          <mxGeometry y="240" width="250" height="30" as="geometry" />
        </mxCell>
        <mxCell id="KycW4tC0qBG2q9IRIVnm-52" value="condition" style="shape=partialRectangle;overflow=hidden;connectable=0;fillColor=none;top=0;left=0;bottom=0;right=0;strokeColor=#457B9D;fontColor=#1D3557;" parent="KycW4tC0qBG2q9IRIVnm-51" vertex="1">
          <mxGeometry width="70" height="30" as="geometry" />
        </mxCell>
        <mxCell id="KycW4tC0qBG2q9IRIVnm-53" value="number 4" style="shape=partialRectangle;overflow=hidden;connectable=0;fillColor=none;top=0;left=0;bottom=0;right=0;align=left;spacingLeft=6;strokeColor=#457B9D;fontColor=#1D3557;" parent="KycW4tC0qBG2q9IRIVnm-51" vertex="1">
          <mxGeometry x="70" width="180" height="30" as="geometry" />
        </mxCell>
        <mxCell id="KycW4tC0qBG2q9IRIVnm-63" value="" style="shape=partialRectangle;collapsible=0;dropTarget=0;pointerEvents=0;fillColor=none;points=[[0,0.5],[1,0.5]];portConstraint=eastwest;top=0;left=0;right=0;bottom=0;strokeColor=#457B9D;fontColor=#1D3557;" parent="KycW4tC0qBG2q9IRIVnm-14" vertex="1">
          <mxGeometry y="270" width="250" height="30" as="geometry" />
        </mxCell>
        <mxCell id="KycW4tC0qBG2q9IRIVnm-64" value="time" style="shape=partialRectangle;overflow=hidden;connectable=0;fillColor=none;top=0;left=0;bottom=0;right=0;strokeColor=#457B9D;fontColor=#1D3557;" parent="KycW4tC0qBG2q9IRIVnm-63" vertex="1">
          <mxGeometry width="70" height="30" as="geometry" />
        </mxCell>
        <mxCell id="KycW4tC0qBG2q9IRIVnm-65" value="string" style="shape=partialRectangle;overflow=hidden;connectable=0;fillColor=none;top=0;left=0;bottom=0;right=0;align=left;spacingLeft=6;strokeColor=#457B9D;fontColor=#1D3557;" parent="KycW4tC0qBG2q9IRIVnm-63" vertex="1">
          <mxGeometry x="70" width="180" height="30" as="geometry" />
        </mxCell>
        <mxCell id="KycW4tC0qBG2q9IRIVnm-107" value="" style="shape=partialRectangle;collapsible=0;dropTarget=0;pointerEvents=0;fillColor=none;points=[[0,0.5],[1,0.5]];portConstraint=eastwest;top=0;left=0;right=0;bottom=0;strokeColor=#457B9D;fontColor=#1D3557;" parent="KycW4tC0qBG2q9IRIVnm-14" vertex="1">
          <mxGeometry y="300" width="250" height="30" as="geometry" />
        </mxCell>
        <mxCell id="KycW4tC0qBG2q9IRIVnm-108" value="FK" style="shape=partialRectangle;overflow=hidden;connectable=0;fillColor=none;top=0;left=0;bottom=0;right=0;strokeColor=#457B9D;fontColor=#1D3557;" parent="KycW4tC0qBG2q9IRIVnm-107" vertex="1">
          <mxGeometry width="70" height="30" as="geometry" />
        </mxCell>
        <mxCell id="KycW4tC0qBG2q9IRIVnm-109" value="cinema Id" style="shape=partialRectangle;overflow=hidden;connectable=0;fillColor=none;top=0;left=0;bottom=0;right=0;align=left;spacingLeft=6;strokeColor=#457B9D;fontColor=#1D3557;" parent="KycW4tC0qBG2q9IRIVnm-107" vertex="1">
          <mxGeometry x="70" width="180" height="30" as="geometry" />
        </mxCell>
        <mxCell id="KycW4tC0qBG2q9IRIVnm-66" value="Cinema" style="shape=table;startSize=30;container=1;collapsible=1;childLayout=tableLayout;fixedRows=1;rowLines=0;fontStyle=1;align=center;resizeLast=1;fillColor=#A8DADC;strokeColor=#457B9D;fontColor=#1D3557;" parent="1" vertex="1">
          <mxGeometry x="70" y="300" width="250" height="250" as="geometry" />
        </mxCell>
        <mxCell id="KycW4tC0qBG2q9IRIVnm-67" value="" style="shape=partialRectangle;collapsible=0;dropTarget=0;pointerEvents=0;fillColor=none;points=[[0,0.5],[1,0.5]];portConstraint=eastwest;top=0;left=0;right=0;bottom=1;strokeColor=#457B9D;fontColor=#1D3557;" parent="KycW4tC0qBG2q9IRIVnm-66" vertex="1">
          <mxGeometry y="30" width="250" height="30" as="geometry" />
        </mxCell>
        <mxCell id="KycW4tC0qBG2q9IRIVnm-68" value="PK" style="shape=partialRectangle;overflow=hidden;connectable=0;fillColor=none;top=0;left=0;bottom=0;right=0;fontStyle=1;strokeColor=#457B9D;fontColor=#1D3557;" parent="KycW4tC0qBG2q9IRIVnm-67" vertex="1">
          <mxGeometry width="80" height="30" as="geometry" />
        </mxCell>
        <mxCell id="KycW4tC0qBG2q9IRIVnm-69" value="id" style="shape=partialRectangle;overflow=hidden;connectable=0;fillColor=none;top=0;left=0;bottom=0;right=0;align=left;spacingLeft=6;fontStyle=5;strokeColor=#457B9D;fontColor=#1D3557;" parent="KycW4tC0qBG2q9IRIVnm-67" vertex="1">
          <mxGeometry x="80" width="170" height="30" as="geometry" />
        </mxCell>
        <mxCell id="KycW4tC0qBG2q9IRIVnm-70" value="" style="shape=partialRectangle;collapsible=0;dropTarget=0;pointerEvents=0;fillColor=none;points=[[0,0.5],[1,0.5]];portConstraint=eastwest;top=0;left=0;right=0;bottom=0;strokeColor=#457B9D;fontColor=#1D3557;" parent="KycW4tC0qBG2q9IRIVnm-66" vertex="1">
          <mxGeometry y="60" width="250" height="30" as="geometry" />
        </mxCell>
        <mxCell id="KycW4tC0qBG2q9IRIVnm-71" value="Location" style="shape=partialRectangle;overflow=hidden;connectable=0;fillColor=none;top=0;left=0;bottom=0;right=0;strokeColor=#457B9D;fontColor=#1D3557;" parent="KycW4tC0qBG2q9IRIVnm-70" vertex="1">
          <mxGeometry width="80" height="30" as="geometry" />
        </mxCell>
        <mxCell id="KycW4tC0qBG2q9IRIVnm-72" value="string" style="shape=partialRectangle;overflow=hidden;connectable=0;fillColor=none;top=0;left=0;bottom=0;right=0;align=left;spacingLeft=6;strokeColor=#457B9D;fontColor=#1D3557;" parent="KycW4tC0qBG2q9IRIVnm-70" vertex="1">
          <mxGeometry x="80" width="170" height="30" as="geometry" />
        </mxCell>
        <mxCell id="KycW4tC0qBG2q9IRIVnm-73" value="" style="shape=partialRectangle;collapsible=0;dropTarget=0;pointerEvents=0;fillColor=none;points=[[0,0.5],[1,0.5]];portConstraint=eastwest;top=0;left=0;right=0;bottom=0;strokeColor=#457B9D;fontColor=#1D3557;" parent="KycW4tC0qBG2q9IRIVnm-66" vertex="1">
          <mxGeometry y="90" width="250" height="30" as="geometry" />
        </mxCell>
        <mxCell id="KycW4tC0qBG2q9IRIVnm-74" value="capacity " style="shape=partialRectangle;overflow=hidden;connectable=0;fillColor=none;top=0;left=0;bottom=0;right=0;strokeColor=#457B9D;fontColor=#1D3557;" parent="KycW4tC0qBG2q9IRIVnm-73" vertex="1">
          <mxGeometry width="80" height="30" as="geometry" />
        </mxCell>
        <mxCell id="KycW4tC0qBG2q9IRIVnm-75" value="number" style="shape=partialRectangle;overflow=hidden;connectable=0;fillColor=none;top=0;left=0;bottom=0;right=0;align=left;spacingLeft=6;strokeColor=#457B9D;fontColor=#1D3557;" parent="KycW4tC0qBG2q9IRIVnm-73" vertex="1">
          <mxGeometry x="80" width="170" height="30" as="geometry" />
        </mxCell>
        <mxCell id="KycW4tC0qBG2q9IRIVnm-76" value="" style="shape=partialRectangle;collapsible=0;dropTarget=0;pointerEvents=0;fillColor=none;points=[[0,0.5],[1,0.5]];portConstraint=eastwest;top=0;left=0;right=0;bottom=0;strokeColor=#457B9D;fontColor=#1D3557;" parent="KycW4tC0qBG2q9IRIVnm-66" vertex="1">
          <mxGeometry y="120" width="250" height="30" as="geometry" />
        </mxCell>
        <mxCell id="KycW4tC0qBG2q9IRIVnm-77" value="room" style="shape=partialRectangle;overflow=hidden;connectable=0;fillColor=none;top=0;left=0;bottom=0;right=0;strokeColor=#457B9D;fontColor=#1D3557;" parent="KycW4tC0qBG2q9IRIVnm-76" vertex="1">
          <mxGeometry width="80" height="30" as="geometry" />
        </mxCell>
        <mxCell id="KycW4tC0qBG2q9IRIVnm-78" value="number" style="shape=partialRectangle;overflow=hidden;connectable=0;fillColor=none;top=0;left=0;bottom=0;right=0;align=left;spacingLeft=6;strokeColor=#457B9D;fontColor=#1D3557;" parent="KycW4tC0qBG2q9IRIVnm-76" vertex="1">
          <mxGeometry x="80" width="170" height="30" as="geometry" />
        </mxCell>
        <mxCell id="KycW4tC0qBG2q9IRIVnm-79" value="" style="shape=partialRectangle;collapsible=0;dropTarget=0;pointerEvents=0;fillColor=none;points=[[0,0.5],[1,0.5]];portConstraint=eastwest;top=0;left=0;right=0;bottom=0;strokeColor=#457B9D;fontColor=#1D3557;" parent="KycW4tC0qBG2q9IRIVnm-66" vertex="1">
          <mxGeometry y="150" width="250" height="30" as="geometry" />
        </mxCell>
        <mxCell id="KycW4tC0qBG2q9IRIVnm-80" value="staff" style="shape=partialRectangle;overflow=hidden;connectable=0;fillColor=none;top=0;left=0;bottom=0;right=0;strokeColor=#457B9D;fontColor=#1D3557;" parent="KycW4tC0qBG2q9IRIVnm-79" vertex="1">
          <mxGeometry width="80" height="30" as="geometry" />
        </mxCell>
        <mxCell id="KycW4tC0qBG2q9IRIVnm-81" value="users" style="shape=partialRectangle;overflow=hidden;connectable=0;fillColor=none;top=0;left=0;bottom=0;right=0;align=left;spacingLeft=6;strokeColor=#457B9D;fontColor=#1D3557;" parent="KycW4tC0qBG2q9IRIVnm-79" vertex="1">
          <mxGeometry x="80" width="170" height="30" as="geometry" />
        </mxCell>
        <mxCell id="KycW4tC0qBG2q9IRIVnm-112" value="" style="shape=partialRectangle;collapsible=0;dropTarget=0;pointerEvents=0;fillColor=none;points=[[0,0.5],[1,0.5]];portConstraint=eastwest;top=0;left=0;right=0;bottom=0;strokeColor=#457B9D;fontColor=#1D3557;" parent="KycW4tC0qBG2q9IRIVnm-66" vertex="1">
          <mxGeometry y="180" width="250" height="30" as="geometry" />
        </mxCell>
        <mxCell id="KycW4tC0qBG2q9IRIVnm-113" value="revenue" style="shape=partialRectangle;overflow=hidden;connectable=0;fillColor=none;top=0;left=0;bottom=0;right=0;strokeColor=#457B9D;fontColor=#1D3557;" parent="KycW4tC0qBG2q9IRIVnm-112" vertex="1">
          <mxGeometry width="80" height="30" as="geometry" />
        </mxCell>
        <mxCell id="KycW4tC0qBG2q9IRIVnm-114" value="number" style="shape=partialRectangle;overflow=hidden;connectable=0;fillColor=none;top=0;left=0;bottom=0;right=0;align=left;spacingLeft=6;strokeColor=#457B9D;fontColor=#1D3557;" parent="KycW4tC0qBG2q9IRIVnm-112" vertex="1">
          <mxGeometry x="80" width="170" height="30" as="geometry" />
        </mxCell>
        <mxCell id="KycW4tC0qBG2q9IRIVnm-115" value="" style="shape=partialRectangle;collapsible=0;dropTarget=0;pointerEvents=0;fillColor=none;points=[[0,0.5],[1,0.5]];portConstraint=eastwest;top=0;left=0;right=0;bottom=0;strokeColor=#457B9D;fontColor=#1D3557;" parent="KycW4tC0qBG2q9IRIVnm-66" vertex="1">
          <mxGeometry y="210" width="250" height="30" as="geometry" />
        </mxCell>
        <mxCell id="KycW4tC0qBG2q9IRIVnm-116" value="transactions" style="shape=partialRectangle;overflow=hidden;connectable=0;fillColor=none;top=0;left=0;bottom=0;right=0;strokeColor=#457B9D;fontColor=#1D3557;" parent="KycW4tC0qBG2q9IRIVnm-115" vertex="1">
          <mxGeometry width="80" height="30" as="geometry" />
        </mxCell>
        <mxCell id="KycW4tC0qBG2q9IRIVnm-117" value="array of transactions" style="shape=partialRectangle;overflow=hidden;connectable=0;fillColor=none;top=0;left=0;bottom=0;right=0;align=left;spacingLeft=6;strokeColor=#457B9D;fontColor=#1D3557;" parent="KycW4tC0qBG2q9IRIVnm-115" vertex="1">
          <mxGeometry x="80" width="170" height="30" as="geometry" />
        </mxCell>
        <mxCell id="KycW4tC0qBG2q9IRIVnm-111" value="" style="edgeStyle=entityRelationEdgeStyle;fontSize=12;html=1;endArrow=ERzeroToMany;startArrow=ERmandOne;exitX=0.08;exitY=-0.016;exitDx=0;exitDy=0;exitPerimeter=0;strokeColor=#457B9D;fontColor=#1D3557;labelBackgroundColor=#F1FAEE;" parent="1" source="KycW4tC0qBG2q9IRIVnm-66" edge="1">
          <mxGeometry width="100" height="100" relative="1" as="geometry">
            <mxPoint x="-20" y="260" as="sourcePoint" />
            <mxPoint x="80" y="160" as="targetPoint" />
          </mxGeometry>
        </mxCell>
        <mxCell id="KycW4tC0qBG2q9IRIVnm-119" value="" style="edgeStyle=entityRelationEdgeStyle;fontSize=12;html=1;endArrow=ERoneToMany;startArrow=ERzeroToOne;fontColor=#1D3557;strokeColor=#457B9D;fillColor=#A8DADC;" parent="1" edge="1">
          <mxGeometry width="100" height="100" relative="1" as="geometry">
            <mxPoint x="620" y="530" as="sourcePoint" />
            <mxPoint x="500" y="690" as="targetPoint" />
          </mxGeometry>
        </mxCell>
        <mxCell id="KycW4tC0qBG2q9IRIVnm-120" value="" style="edgeStyle=entityRelationEdgeStyle;fontSize=12;html=1;endArrow=ERoneToMany;startArrow=ERmandOne;fontColor=#1D3557;strokeColor=#457B9D;fillColor=#A8DADC;exitX=1.016;exitY=-0.067;exitDx=0;exitDy=0;exitPerimeter=0;entryX=-0.016;entryY=0.067;entryDx=0;entryDy=0;entryPerimeter=0;" parent="1" source="KycW4tC0qBG2q9IRIVnm-76" target="KycW4tC0qBG2q9IRIVnm-95" edge="1">
          <mxGeometry width="100" height="100" relative="1" as="geometry">
            <mxPoint x="400" y="420" as="sourcePoint" />
            <mxPoint x="500" y="320" as="targetPoint" />
          </mxGeometry>
        </mxCell>
        <mxCell id="KycW4tC0qBG2q9IRIVnm-121" value="" style="edgeStyle=entityRelationEdgeStyle;fontSize=12;html=1;endArrow=ERoneToMany;startArrow=ERzeroToOne;fontColor=#1D3557;strokeColor=#457B9D;fillColor=#A8DADC;entryX=0.688;entryY=-0.012;entryDx=0;entryDy=0;entryPerimeter=0;" parent="1" target="KycW4tC0qBG2q9IRIVnm-14" edge="1">
          <mxGeometry width="100" height="100" relative="1" as="geometry">
            <mxPoint x="250" y="550" as="sourcePoint" />
            <mxPoint x="500" y="520" as="targetPoint" />
          </mxGeometry>
        </mxCell>
        <mxCell id="KycW4tC0qBG2q9IRIVnm-122" value="" style="edgeStyle=entityRelationEdgeStyle;fontSize=12;html=1;endArrow=ERoneToMany;startArrow=ERoneToMany;fontColor=#1D3557;strokeColor=#457B9D;fillColor=#A8DADC;exitX=1.008;exitY=0.2;exitDx=0;exitDy=0;exitPerimeter=0;" parent="1" source="KycW4tC0qBG2q9IRIVnm-63" target="KycW4tC0qBG2q9IRIVnm-123" edge="1">
          <mxGeometry width="100" height="100" relative="1" as="geometry">
            <mxPoint x="400" y="620" as="sourcePoint" />
            <mxPoint x="910" y="620" as="targetPoint" />
          </mxGeometry>
        </mxCell>
        <mxCell id="KycW4tC0qBG2q9IRIVnm-123" value="Agenda" style="shape=table;startSize=30;container=1;collapsible=1;childLayout=tableLayout;fixedRows=1;rowLines=0;fontStyle=1;align=center;resizeLast=1;rounded=0;sketch=0;fontColor=#1D3557;strokeColor=#457B9D;fillColor=#A8DADC;" parent="1" vertex="1">
          <mxGeometry x="500" y="670" width="250" height="160" as="geometry" />
        </mxCell>
        <mxCell id="KycW4tC0qBG2q9IRIVnm-124" value="" style="shape=partialRectangle;collapsible=0;dropTarget=0;pointerEvents=0;fillColor=none;top=0;left=0;bottom=1;right=0;points=[[0,0.5],[1,0.5]];portConstraint=eastwest;" parent="KycW4tC0qBG2q9IRIVnm-123" vertex="1">
          <mxGeometry y="30" width="250" height="30" as="geometry" />
        </mxCell>
        <mxCell id="KycW4tC0qBG2q9IRIVnm-125" value="PK" style="shape=partialRectangle;connectable=0;fillColor=none;top=0;left=0;bottom=0;right=0;fontStyle=1;overflow=hidden;" parent="KycW4tC0qBG2q9IRIVnm-124" vertex="1">
          <mxGeometry width="80" height="30" as="geometry" />
        </mxCell>
        <mxCell id="KycW4tC0qBG2q9IRIVnm-126" value="UniqueID" style="shape=partialRectangle;connectable=0;fillColor=none;top=0;left=0;bottom=0;right=0;align=left;spacingLeft=6;fontStyle=5;overflow=hidden;" parent="KycW4tC0qBG2q9IRIVnm-124" vertex="1">
          <mxGeometry x="80" width="170" height="30" as="geometry" />
        </mxCell>
        <mxCell id="KycW4tC0qBG2q9IRIVnm-127" value="" style="shape=partialRectangle;collapsible=0;dropTarget=0;pointerEvents=0;fillColor=none;top=0;left=0;bottom=0;right=0;points=[[0,0.5],[1,0.5]];portConstraint=eastwest;" parent="KycW4tC0qBG2q9IRIVnm-123" vertex="1">
          <mxGeometry y="60" width="250" height="30" as="geometry" />
        </mxCell>
        <mxCell id="KycW4tC0qBG2q9IRIVnm-128" value="FK1" style="shape=partialRectangle;connectable=0;fillColor=none;top=0;left=0;bottom=0;right=0;editable=1;overflow=hidden;" parent="KycW4tC0qBG2q9IRIVnm-127" vertex="1">
          <mxGeometry width="80" height="30" as="geometry" />
        </mxCell>
        <mxCell id="KycW4tC0qBG2q9IRIVnm-129" value="Event id" style="shape=partialRectangle;connectable=0;fillColor=none;top=0;left=0;bottom=0;right=0;align=left;spacingLeft=6;overflow=hidden;" parent="KycW4tC0qBG2q9IRIVnm-127" vertex="1">
          <mxGeometry x="80" width="170" height="30" as="geometry" />
        </mxCell>
        <mxCell id="KycW4tC0qBG2q9IRIVnm-130" value="" style="shape=partialRectangle;collapsible=0;dropTarget=0;pointerEvents=0;fillColor=none;top=0;left=0;bottom=0;right=0;points=[[0,0.5],[1,0.5]];portConstraint=eastwest;" parent="KycW4tC0qBG2q9IRIVnm-123" vertex="1">
          <mxGeometry y="90" width="250" height="30" as="geometry" />
        </mxCell>
        <mxCell id="KycW4tC0qBG2q9IRIVnm-131" value="room" style="shape=partialRectangle;connectable=0;fillColor=none;top=0;left=0;bottom=0;right=0;editable=1;overflow=hidden;" parent="KycW4tC0qBG2q9IRIVnm-130" vertex="1">
          <mxGeometry width="80" height="30" as="geometry" />
        </mxCell>
        <mxCell id="KycW4tC0qBG2q9IRIVnm-132" value="number" style="shape=partialRectangle;connectable=0;fillColor=none;top=0;left=0;bottom=0;right=0;align=left;spacingLeft=6;overflow=hidden;" parent="KycW4tC0qBG2q9IRIVnm-130" vertex="1">
          <mxGeometry x="80" width="170" height="30" as="geometry" />
        </mxCell>
        <mxCell id="KycW4tC0qBG2q9IRIVnm-133" value="" style="shape=partialRectangle;collapsible=0;dropTarget=0;pointerEvents=0;fillColor=none;top=0;left=0;bottom=0;right=0;points=[[0,0.5],[1,0.5]];portConstraint=eastwest;" parent="KycW4tC0qBG2q9IRIVnm-123" vertex="1">
          <mxGeometry y="120" width="250" height="30" as="geometry" />
        </mxCell>
        <mxCell id="KycW4tC0qBG2q9IRIVnm-134" value="FK 2" style="shape=partialRectangle;connectable=0;fillColor=none;top=0;left=0;bottom=0;right=0;editable=1;overflow=hidden;" parent="KycW4tC0qBG2q9IRIVnm-133" vertex="1">
          <mxGeometry width="80" height="30" as="geometry" />
        </mxCell>
        <mxCell id="KycW4tC0qBG2q9IRIVnm-135" value="Movie id" style="shape=partialRectangle;connectable=0;fillColor=none;top=0;left=0;bottom=0;right=0;align=left;spacingLeft=6;overflow=hidden;" parent="KycW4tC0qBG2q9IRIVnm-133" vertex="1">
          <mxGeometry x="80" width="170" height="30" as="geometry" />
        </mxCell>
        <mxCell id="KycW4tC0qBG2q9IRIVnm-138" value="" style="edgeStyle=entityRelationEdgeStyle;fontSize=12;html=1;endArrow=ERmandOne;startArrow=ERmandOne;fontColor=#1D3557;strokeColor=#457B9D;fillColor=#A8DADC;exitX=1;exitY=0.214;exitDx=0;exitDy=0;exitPerimeter=0;entryX=-0.007;entryY=0.11;entryDx=0;entryDy=0;entryPerimeter=0;" parent="1" source="KycW4tC0qBG2q9IRIVnm-124" target="KycW4tC0qBG2q9IRIVnm-39" edge="1">
          <mxGeometry width="100" height="100" relative="1" as="geometry">
            <mxPoint x="800" y="660" as="sourcePoint" />
            <mxPoint x="900" y="560" as="targetPoint" />
          </mxGeometry>
        </mxCell>
        <mxCell id="9dOKMnZdZUDWG1J4gUyQ-1" value="Policy" style="shape=table;startSize=30;container=1;collapsible=1;childLayout=tableLayout;fixedRows=1;rowLines=0;fontStyle=1;align=center;resizeLast=1;rounded=0;sketch=0;fontColor=#1D3557;strokeColor=#457B9D;fillColor=#A8DADC;" parent="1" vertex="1">
          <mxGeometry x="510" y="30" width="250" height="160" as="geometry" />
        </mxCell>
        <mxCell id="9dOKMnZdZUDWG1J4gUyQ-2" value="" style="shape=partialRectangle;collapsible=0;dropTarget=0;pointerEvents=0;fillColor=none;top=0;left=0;bottom=1;right=0;points=[[0,0.5],[1,0.5]];portConstraint=eastwest;" parent="9dOKMnZdZUDWG1J4gUyQ-1" vertex="1">
          <mxGeometry y="30" width="250" height="30" as="geometry" />
        </mxCell>
        <mxCell id="9dOKMnZdZUDWG1J4gUyQ-3" value="PK" style="shape=partialRectangle;connectable=0;fillColor=none;top=0;left=0;bottom=0;right=0;fontStyle=1;overflow=hidden;" parent="9dOKMnZdZUDWG1J4gUyQ-2" vertex="1">
          <mxGeometry width="80" height="30" as="geometry" />
        </mxCell>
        <mxCell id="9dOKMnZdZUDWG1J4gUyQ-4" value="UniqueID" style="shape=partialRectangle;connectable=0;fillColor=none;top=0;left=0;bottom=0;right=0;align=left;spacingLeft=6;fontStyle=5;overflow=hidden;" parent="9dOKMnZdZUDWG1J4gUyQ-2" vertex="1">
          <mxGeometry x="80" width="170" height="30" as="geometry" />
        </mxCell>
        <mxCell id="9dOKMnZdZUDWG1J4gUyQ-5" value="" style="shape=partialRectangle;collapsible=0;dropTarget=0;pointerEvents=0;fillColor=none;top=0;left=0;bottom=0;right=0;points=[[0,0.5],[1,0.5]];portConstraint=eastwest;" parent="9dOKMnZdZUDWG1J4gUyQ-1" vertex="1">
          <mxGeometry y="60" width="250" height="30" as="geometry" />
        </mxCell>
        <mxCell id="9dOKMnZdZUDWG1J4gUyQ-6" value="price" style="shape=partialRectangle;connectable=0;fillColor=none;top=0;left=0;bottom=0;right=0;editable=1;overflow=hidden;" parent="9dOKMnZdZUDWG1J4gUyQ-5" vertex="1">
          <mxGeometry width="80" height="30" as="geometry" />
        </mxCell>
        <mxCell id="9dOKMnZdZUDWG1J4gUyQ-7" value="float" style="shape=partialRectangle;connectable=0;fillColor=none;top=0;left=0;bottom=0;right=0;align=left;spacingLeft=6;overflow=hidden;" parent="9dOKMnZdZUDWG1J4gUyQ-5" vertex="1">
          <mxGeometry x="80" width="170" height="30" as="geometry" />
        </mxCell>
        <mxCell id="9dOKMnZdZUDWG1J4gUyQ-8" value="" style="shape=partialRectangle;collapsible=0;dropTarget=0;pointerEvents=0;fillColor=none;top=0;left=0;bottom=0;right=0;points=[[0,0.5],[1,0.5]];portConstraint=eastwest;" parent="9dOKMnZdZUDWG1J4gUyQ-1" vertex="1">
          <mxGeometry y="90" width="250" height="30" as="geometry" />
        </mxCell>
        <mxCell id="9dOKMnZdZUDWG1J4gUyQ-9" value="discount" style="shape=partialRectangle;connectable=0;fillColor=none;top=0;left=0;bottom=0;right=0;editable=1;overflow=hidden;" parent="9dOKMnZdZUDWG1J4gUyQ-8" vertex="1">
          <mxGeometry width="80" height="30" as="geometry" />
        </mxCell>
        <mxCell id="9dOKMnZdZUDWG1J4gUyQ-10" value="number" style="shape=partialRectangle;connectable=0;fillColor=none;top=0;left=0;bottom=0;right=0;align=left;spacingLeft=6;overflow=hidden;" parent="9dOKMnZdZUDWG1J4gUyQ-8" vertex="1">
          <mxGeometry x="80" width="170" height="30" as="geometry" />
        </mxCell>
        <mxCell id="9dOKMnZdZUDWG1J4gUyQ-11" value="" style="shape=partialRectangle;collapsible=0;dropTarget=0;pointerEvents=0;fillColor=none;top=0;left=0;bottom=0;right=0;points=[[0,0.5],[1,0.5]];portConstraint=eastwest;" parent="9dOKMnZdZUDWG1J4gUyQ-1" vertex="1">
          <mxGeometry y="120" width="250" height="30" as="geometry" />
        </mxCell>
        <mxCell id="9dOKMnZdZUDWG1J4gUyQ-12" value="condition" style="shape=partialRectangle;connectable=0;fillColor=none;top=0;left=0;bottom=0;right=0;editable=1;overflow=hidden;" parent="9dOKMnZdZUDWG1J4gUyQ-11" vertex="1">
          <mxGeometry width="80" height="30" as="geometry" />
        </mxCell>
        <mxCell id="9dOKMnZdZUDWG1J4gUyQ-13" value="number" style="shape=partialRectangle;connectable=0;fillColor=none;top=0;left=0;bottom=0;right=0;align=left;spacingLeft=6;overflow=hidden;" parent="9dOKMnZdZUDWG1J4gUyQ-11" vertex="1">
          <mxGeometry x="80" width="170" height="30" as="geometry" />
        </mxCell>
        <mxCell id="9dOKMnZdZUDWG1J4gUyQ-16" value="" style="edgeStyle=entityRelationEdgeStyle;fontSize=12;html=1;endArrow=ERoneToMany;startArrow=ERmandOne;" parent="1" edge="1">
          <mxGeometry width="100" height="100" relative="1" as="geometry">
            <mxPoint x="580" y="190" as="sourcePoint" />
            <mxPoint x="553" y="303" as="targetPoint" />
          </mxGeometry>
        </mxCell>
      </root>
    </mxGraphModel>
  </diagram>
  <diagram id="OMSpbQ4l9uBQ-8EhfjTj" name="Page-2">
    <mxGraphModel dx="466" dy="351" grid="1" gridSize="10" guides="1" tooltips="1" connect="1" arrows="1" fold="1" page="1" pageScale="1" pageWidth="827" pageHeight="583" math="0" shadow="0">
      <root>
        <mxCell id="KqP0czGctXDPpCIXJYb9-0" />
        <mxCell id="KqP0czGctXDPpCIXJYb9-1" parent="KqP0czGctXDPpCIXJYb9-0" />
        <mxCell id="KqP0czGctXDPpCIXJYb9-2" value="" style="whiteSpace=wrap;html=1;aspect=fixed;rounded=0;sketch=0;fontColor=#1D3557;strokeColor=#457B9D;fillColor=#A8DADC;" parent="KqP0czGctXDPpCIXJYb9-1" vertex="1">
          <mxGeometry x="110" y="20" width="380" height="380" as="geometry" />
        </mxCell>
        <mxCell id="KqP0czGctXDPpCIXJYb9-3" value="Admin Page" style="rounded=0;whiteSpace=wrap;html=1;sketch=0;" parent="KqP0czGctXDPpCIXJYb9-1" vertex="1">
          <mxGeometry x="110" y="20" width="380" height="50" as="geometry" />
        </mxCell>
        <mxCell id="KqP0czGctXDPpCIXJYb9-5" value="Revenue&amp;nbsp;" style="rounded=1;whiteSpace=wrap;html=1;sketch=0;fillColor=#dae8fc;strokeColor=#6c8ebf;" parent="KqP0czGctXDPpCIXJYb9-1" vertex="1">
          <mxGeometry x="130" y="80" width="120" height="60" as="geometry" />
        </mxCell>
        <mxCell id="KqP0czGctXDPpCIXJYb9-6" value="Recomadations for next week film" style="rounded=1;whiteSpace=wrap;html=1;sketch=0;strokeColor=#9673a6;fillColor=#e1d5e7;" parent="KqP0czGctXDPpCIXJYb9-1" vertex="1">
          <mxGeometry x="270" y="80" width="120" height="60" as="geometry" />
        </mxCell>
        <mxCell id="KqP0czGctXDPpCIXJYb9-7" value="Movie on show this week 3-5 cards" style="rounded=1;whiteSpace=wrap;html=1;sketch=0;strokeColor=#b85450;fillColor=#f8cecc;" parent="KqP0czGctXDPpCIXJYb9-1" vertex="1">
          <mxGeometry x="130" y="270" width="330" height="60" as="geometry" />
        </mxCell>
        <mxCell id="KqP0czGctXDPpCIXJYb9-21" value="Movie on show this week 3-5 cards" style="rounded=1;whiteSpace=wrap;html=1;sketch=0;strokeColor=#b85450;fillColor=#f8cecc;" parent="KqP0czGctXDPpCIXJYb9-1" vertex="1">
          <mxGeometry x="130" y="340" width="330" height="60" as="geometry" />
        </mxCell>
        <mxCell id="KqP0czGctXDPpCIXJYb9-22" value="add films" style="rounded=0;whiteSpace=wrap;html=1;sketch=0;fontColor=#000000;strokeColor=#C73500;fillColor=#fa6800;" parent="KqP0czGctXDPpCIXJYb9-1" vertex="1">
          <mxGeometry x="150" y="150" width="60" height="60" as="geometry" />
        </mxCell>
        <mxCell id="KqP0czGctXDPpCIXJYb9-24" value="delete films" style="rounded=1;whiteSpace=wrap;html=1;sketch=0;strokeColor=#23445d;fillColor=#bac8d3;" parent="KqP0czGctXDPpCIXJYb9-1" vertex="1">
          <mxGeometry x="270" y="150" width="120" height="60" as="geometry" />
        </mxCell>
        <mxCell id="KqP0czGctXDPpCIXJYb9-25" value="Event on the day" style="rounded=0;whiteSpace=wrap;html=1;sketch=0;fillColor=#e6d0de;gradientColor=#d5739d;strokeColor=#996185;" parent="KqP0czGctXDPpCIXJYb9-1" vertex="1">
          <mxGeometry x="130" y="220" width="320" height="40" as="geometry" />
        </mxCell>
        <mxCell id="KqP0czGctXDPpCIXJYb9-26" value="" style="whiteSpace=wrap;html=1;aspect=fixed;rounded=0;sketch=0;strokeColor=#6c8ebf;fillColor=#dae8fc;" parent="KqP0czGctXDPpCIXJYb9-1" vertex="1">
          <mxGeometry x="530" y="20" width="380" height="380" as="geometry" />
        </mxCell>
        <mxCell id="KqP0czGctXDPpCIXJYb9-27" value="Guest Page" style="rounded=0;whiteSpace=wrap;html=1;sketch=0;fillColor=#ffcccc;strokeColor=#36393d;" parent="KqP0czGctXDPpCIXJYb9-1" vertex="1">
          <mxGeometry x="530" y="20" width="380" height="50" as="geometry" />
        </mxCell>
        <mxCell id="KqP0czGctXDPpCIXJYb9-28" value="movie on the day 3-5 cards" style="rounded=1;whiteSpace=wrap;html=1;sketch=0;strokeColor=#82b366;fillColor=#d5e8d4;" parent="KqP0czGctXDPpCIXJYb9-1" vertex="1">
          <mxGeometry x="540" y="90" width="350" height="60" as="geometry" />
        </mxCell>
        <mxCell id="KqP0czGctXDPpCIXJYb9-29" value="Buy&amp;nbsp;" style="rounded=0;whiteSpace=wrap;html=1;sketch=0;fontColor=#ffffff;strokeColor=#B20000;fillColor=#e51400;" parent="KqP0czGctXDPpCIXJYb9-1" vertex="1">
          <mxGeometry x="810" y="105" width="70" height="30" as="geometry" />
        </mxCell>
        <mxCell id="KqP0czGctXDPpCIXJYb9-30" value="account" style="ellipse;whiteSpace=wrap;html=1;rounded=0;sketch=0;strokeColor=#d6b656;fillColor=#fff2cc;" parent="KqP0czGctXDPpCIXJYb9-1" vertex="1">
          <mxGeometry x="850" y="25" width="50" height="40" as="geometry" />
        </mxCell>
        <mxCell id="KqP0czGctXDPpCIXJYb9-31" value="" style="whiteSpace=wrap;html=1;aspect=fixed;rounded=0;sketch=0;fillColor=#dae8fc;strokeColor=#6c8ebf;" parent="KqP0czGctXDPpCIXJYb9-1" vertex="1">
          <mxGeometry x="530" y="830" width="380" height="380" as="geometry" />
        </mxCell>
        <mxCell id="KqP0czGctXDPpCIXJYb9-32" value="Buy page&amp;nbsp;" style="rounded=0;whiteSpace=wrap;html=1;sketch=0;fontColor=#1D3557;strokeColor=#457B9D;fillColor=#A8DADC;" parent="KqP0czGctXDPpCIXJYb9-1" vertex="1">
          <mxGeometry x="580" y="870" width="290" height="70" as="geometry" />
        </mxCell>
        <mxCell id="KqP0czGctXDPpCIXJYb9-33" value="transaction&amp;nbsp;" style="whiteSpace=wrap;html=1;aspect=fixed;rounded=0;sketch=0;fontColor=#1D3557;strokeColor=#457B9D;fillColor=#A8DADC;" parent="KqP0czGctXDPpCIXJYb9-1" vertex="1">
          <mxGeometry x="580" y="1000" width="150" height="150" as="geometry" />
        </mxCell>
        <mxCell id="KqP0czGctXDPpCIXJYb9-34" value="confirm" style="rounded=0;whiteSpace=wrap;html=1;sketch=0;fontColor=#1D3557;strokeColor=#457B9D;fillColor=#A8DADC;" parent="KqP0czGctXDPpCIXJYb9-1" vertex="1">
          <mxGeometry x="810" y="1005" width="60" height="140" as="geometry" />
        </mxCell>
        <mxCell id="KqP0czGctXDPpCIXJYb9-36" value="" style="whiteSpace=wrap;html=1;aspect=fixed;rounded=0;sketch=0;fillColor=#dae8fc;strokeColor=#6c8ebf;" parent="KqP0czGctXDPpCIXJYb9-1" vertex="1">
          <mxGeometry x="530" y="430" width="380" height="380" as="geometry" />
        </mxCell>
        <mxCell id="KqP0czGctXDPpCIXJYb9-37" value="guest account page" style="rounded=0;whiteSpace=wrap;html=1;sketch=0;fontColor=#1D3557;strokeColor=#457B9D;fillColor=#A8DADC;" parent="KqP0czGctXDPpCIXJYb9-1" vertex="1">
          <mxGeometry x="540" y="440" width="360" height="60" as="geometry" />
        </mxCell>
        <mxCell id="KqP0czGctXDPpCIXJYb9-38" value="log out" style="rounded=0;whiteSpace=wrap;html=1;sketch=0;strokeColor=#b85450;fillColor=#f8cecc;" parent="KqP0czGctXDPpCIXJYb9-1" vertex="1">
          <mxGeometry x="810" y="455" width="80" height="30" as="geometry" />
        </mxCell>
        <mxCell id="KqP0czGctXDPpCIXJYb9-39" value="purchase records 3-5 cards&amp;nbsp;" style="rounded=0;whiteSpace=wrap;html=1;sketch=0;fontColor=#1D3557;strokeColor=#457B9D;fillColor=#A8DADC;" parent="KqP0czGctXDPpCIXJYb9-1" vertex="1">
          <mxGeometry x="550" y="530" width="350" height="60" as="geometry" />
        </mxCell>
        <mxCell id="KqP0czGctXDPpCIXJYb9-41" value="" style="whiteSpace=wrap;html=1;aspect=fixed;rounded=0;sketch=0;strokeColor=#d79b00;fillColor=#ffe6cc;" parent="KqP0czGctXDPpCIXJYb9-1" vertex="1">
          <mxGeometry x="950" y="20" width="380" height="380" as="geometry" />
        </mxCell>
        <mxCell id="KqP0czGctXDPpCIXJYb9-42" value="home page&amp;nbsp;" style="rounded=0;whiteSpace=wrap;html=1;sketch=0;fontColor=#1D3557;strokeColor=#457B9D;fillColor=#A8DADC;" parent="KqP0czGctXDPpCIXJYb9-1" vertex="1">
          <mxGeometry x="975" y="30" width="330" height="60" as="geometry" />
        </mxCell>
        <mxCell id="KqP0czGctXDPpCIXJYb9-43" value="login" style="rounded=0;whiteSpace=wrap;html=1;sketch=0;strokeColor=#b85450;fillColor=#f8cecc;" parent="KqP0czGctXDPpCIXJYb9-1" vertex="1">
          <mxGeometry x="1196" y="45" width="90" height="30" as="geometry" />
        </mxCell>
        <mxCell id="KqP0czGctXDPpCIXJYb9-44" value="film card&amp;nbsp;" style="rounded=1;whiteSpace=wrap;html=1;sketch=0;fontColor=#1D3557;strokeColor=#457B9D;fillColor=#A8DADC;" parent="KqP0czGctXDPpCIXJYb9-1" vertex="1">
          <mxGeometry x="975" y="120" width="335" height="60" as="geometry" />
        </mxCell>
        <mxCell id="KqP0czGctXDPpCIXJYb9-45" value="Buy&amp;nbsp;" style="rounded=0;whiteSpace=wrap;html=1;sketch=0;fontColor=#ffffff;strokeColor=#B20000;fillColor=#e51400;" parent="KqP0czGctXDPpCIXJYb9-1" vertex="1">
          <mxGeometry x="1230" y="135" width="70" height="30" as="geometry" />
        </mxCell>
        <mxCell id="KqP0czGctXDPpCIXJYb9-46" value="film card&amp;nbsp;" style="rounded=1;whiteSpace=wrap;html=1;sketch=0;fontColor=#1D3557;strokeColor=#457B9D;fillColor=#A8DADC;" parent="KqP0czGctXDPpCIXJYb9-1" vertex="1">
          <mxGeometry x="975" y="200" width="335" height="60" as="geometry" />
        </mxCell>
        <mxCell id="KqP0czGctXDPpCIXJYb9-47" value="Buy&amp;nbsp;" style="rounded=0;whiteSpace=wrap;html=1;sketch=0;fillColor=#e51400;strokeColor=#B20000;fontColor=#ffffff;" parent="KqP0czGctXDPpCIXJYb9-1" vertex="1">
          <mxGeometry x="1230" y="215" width="70" height="30" as="geometry" />
        </mxCell>
        <mxCell id="KqP0czGctXDPpCIXJYb9-48" value="" style="whiteSpace=wrap;html=1;aspect=fixed;rounded=0;sketch=0;strokeColor=#d79b00;fillColor=#ffe6cc;" parent="KqP0czGctXDPpCIXJYb9-1" vertex="1">
          <mxGeometry x="950" y="430" width="380" height="380" as="geometry" />
        </mxCell>
        <mxCell id="KqP0czGctXDPpCIXJYb9-49" value="Login page" style="rounded=0;whiteSpace=wrap;html=1;sketch=0;fontColor=#1D3557;strokeColor=#457B9D;fillColor=#A8DADC;" parent="KqP0czGctXDPpCIXJYb9-1" vertex="1">
          <mxGeometry x="990" y="455" width="300" height="60" as="geometry" />
        </mxCell>
        <mxCell id="KqP0czGctXDPpCIXJYb9-50" value="username" style="rounded=0;whiteSpace=wrap;html=1;sketch=0;fontColor=#1D3557;strokeColor=#457B9D;fillColor=#A8DADC;" parent="KqP0czGctXDPpCIXJYb9-1" vertex="1">
          <mxGeometry x="990" y="535" width="300" height="60" as="geometry" />
        </mxCell>
        <mxCell id="KqP0czGctXDPpCIXJYb9-51" value="password" style="rounded=0;whiteSpace=wrap;html=1;sketch=0;fontColor=#1D3557;strokeColor=#457B9D;fillColor=#A8DADC;" parent="KqP0czGctXDPpCIXJYb9-1" vertex="1">
          <mxGeometry x="990" y="630" width="300" height="60" as="geometry" />
        </mxCell>
        <mxCell id="KqP0czGctXDPpCIXJYb9-52" value="" style="whiteSpace=wrap;html=1;aspect=fixed;rounded=0;sketch=0;strokeColor=#d79b00;fillColor=#ffe6cc;" parent="KqP0czGctXDPpCIXJYb9-1" vertex="1">
          <mxGeometry x="950" y="860" width="380" height="380" as="geometry" />
        </mxCell>
        <mxCell id="KqP0czGctXDPpCIXJYb9-53" value="Sign Up page&amp;nbsp;" style="rounded=0;whiteSpace=wrap;html=1;sketch=0;fontColor=#1D3557;strokeColor=#457B9D;fillColor=#A8DADC;" parent="KqP0czGctXDPpCIXJYb9-1" vertex="1">
          <mxGeometry x="1000" y="890" width="300" height="60" as="geometry" />
        </mxCell>
        <mxCell id="KqP0czGctXDPpCIXJYb9-54" value="form to register" style="rounded=1;whiteSpace=wrap;html=1;sketch=0;fontColor=#000000;strokeColor=#C73500;fillColor=#fa6800;" parent="KqP0czGctXDPpCIXJYb9-1" vertex="1">
          <mxGeometry x="1010" y="980" width="280" height="210" as="geometry" />
        </mxCell>
        <mxCell id="KqP0czGctXDPpCIXJYb9-55" value="repeat&lt;br&gt;schedule" style="rounded=0;whiteSpace=wrap;html=1;sketch=0;strokeColor=#ae4132;fillColor=#fad9d5;" parent="KqP0czGctXDPpCIXJYb9-1" vertex="1">
          <mxGeometry x="410" y="90" width="50" height="60" as="geometry" />
        </mxCell>
        <mxCell id="KqP0czGctXDPpCIXJYb9-57" value="" style="whiteSpace=wrap;html=1;aspect=fixed;rounded=0;sketch=0;fontColor=#1D3557;strokeColor=#457B9D;fillColor=#A8DADC;" parent="KqP0czGctXDPpCIXJYb9-1" vertex="1">
          <mxGeometry x="120" y="420" width="380" height="380" as="geometry" />
        </mxCell>
        <mxCell id="KqP0czGctXDPpCIXJYb9-58" value="Admin Page" style="rounded=0;whiteSpace=wrap;html=1;sketch=0;" parent="KqP0czGctXDPpCIXJYb9-1" vertex="1">
          <mxGeometry x="120" y="420" width="380" height="50" as="geometry" />
        </mxCell>
        <mxCell id="KqP0czGctXDPpCIXJYb9-59" value="create event form" style="rounded=1;whiteSpace=wrap;html=1;sketch=0;fontColor=#000000;strokeColor=#C73500;fillColor=#fa6800;" parent="KqP0czGctXDPpCIXJYb9-1" vertex="1">
          <mxGeometry x="170" y="515" width="280" height="210" as="geometry" />
        </mxCell>
      </root>
    </mxGraphModel>
  </diagram>
</mxfile>
